<?xml version="1.0" encoding="UTF-8"?>
<svg width="47px" height="64px" viewBox="0 0 47 64" version="1.1" xmlns="http://www.w3.org/2000/svg" xmlns:xlink="http://www.w3.org/1999/xlink">
    <!-- Generator: Sketch 39 (31667) - http://www.bohemiancoding.com/sketch -->
    <title>Untitled</title>
    <desc>Created with Sketch.</desc>
    <defs></defs>
    <g id="Page-1" stroke="none" stroke-width="1" fill="none" fill-rule="evenodd">
        <g id="items-inside-a-shopping-bag" fill="#43CB83">
            <polygon id="Shape" points="40.52 4.65 36.52 7.25 36.16 9.32 40.16 6.72"></polygon>
            <polygon id="Shape" points="39.77 8.91 35.77 11.51 35.35 13.9 39.35 11.3"></polygon>
            <polygon id="Shape" points="41.23 0.61 37.79 0 36.9 5.07 40.9 2.47"></polygon>
            <g id="Group" transform="translate(0.000000, 2.000000)">
                <path d="M27.7772243,22.425 C27.7772243,23.5663153 28.6613144,24.5125671 29.8,24.59 L30,24.59 C30.52,28.44 26.48,31.96 22.66,32.17 C18.35,32.4 16.56,28.23 16.21,24.55 C17.1903701,24.3245827 17.8872857,23.454939 17.8936944,22.4490079 C17.9001031,21.4430768 17.2143244,20.564624 16.236906,20.3267339 C15.2594877,20.0888437 14.246719,20.5538933 13.7901351,21.450258 C13.3335511,22.3466226 13.5528731,23.439266 14.32,24.09 C14.64,29.16 17.52,34.77 23.46,33.96 C28.46,33.29 32.88,28.5 31.67,23.59 C32.089761,22.9226364 32.1125729,22.0795827 31.7295156,21.3904959 C31.3464583,20.7014091 30.618388,20.2757642 29.83,20.28 C28.6613144,20.3374329 27.7772243,21.2836847 27.7772243,22.425 Z" id="Shape"></path>
                <path d="M46.25,58.93 C44.66,52.66 39.95,31.13 46.17,17.44 C46.2021588,17.3593936 46.225625,17.2755859 46.24,17.19 C46.2417174,17.1700369 46.2417174,17.1499631 46.24,17.13 C46.2513131,17.0269763 46.2513131,16.9230237 46.24,16.82 C46.24,16.82 46.24,16.82 46.24,16.76 C46.24596,16.6767732 46.24596,16.5932268 46.24,16.51 L46.24,16.42 C46.2117414,16.3476944 46.1783219,16.2775135 46.14,16.21 L46.14,16.16 L46.14,16.16 L46,16 L41.52,10 C41.3617021,9.79040352 41.1464895,9.63072963 40.9,9.54 C41.420148,10.8206274 41.3243231,12.2690578 40.64,13.47 L42.12,15.47 L35.89,15.47 L38.56,13.74 L38.96,11.46 L34.96,14.06 L34.71,15.47 L30.5,15.47 L32.56,12.23 L33.03,11.47 L29.86,9.47 L22.22,4.63 L19.92,8.25 L22.15,15.48 L21,15.48 L16.33,0.32 L4.1,4.09 L5.75,9.46 L4.47,9.46 C3.94873394,9.45771361 3.47000469,9.74726759 3.23,10.21 L0.14,16.21 L0.14,16.29 L0.14,16.4 C0.118222212,16.4652838 0.101506089,16.5321483 0.09,16.6 L0.09,16.7 C0.0497496165,16.7966341 0.0195895401,16.8971677 0,17 L0,17 C0.0142060337,17.1019124 0.0376355378,17.2023246 0.07,17.3 C6.66,35.23 2,53.82 0.45,59.09 C0.257264982,59.5642224 0.321455924,60.1041815 0.62,60.52 C0.88230304,60.8684331 1.29387744,61.0723663 1.73,61.07 L1.73,61.07 C2.0466979,61.075219 2.35374423,60.9609692 2.59,60.75 L44.19,60.75 C44.4233987,60.9236435 44.7093361,61.0118958 45,61 C45.4305057,61.0000563 45.8367411,60.8006317 46.1,60.46 C46.4180862,60.0139619 46.4824172,59.434983 46.27,58.93 L46.25,58.93 Z M5.32,12.24 L6.61,12.24 L7.61,15.48 L3.61,15.48 L5.32,12.24 Z M3.65,58 C5.49,51.06 8.65,34.62 3.34,18.29 L42.83,18.29 C37.83,31.69 41.35,50.36 43.15,58 L3.65,58 Z" id="Shape"></path>
            </g>
            <path d="M8.24,48.85 L9.3,48.85 C9.36759452,49.2859001 9.6236286,49.6699512 10,49.9 C10.4463753,50.1763464 10.9654768,50.3122186 11.49,50.29 C11.9953732,50.3117933 12.4940214,50.1678174 12.91,49.88 C13.2474888,49.6569253 13.4561515,49.2843133 13.47,48.88 C13.477354,48.5332513 13.3264565,48.2020128 13.06,47.98 C12.6824271,47.6948012 12.2445771,47.4998211 11.78,47.41 L10.7,47.13 C10.0622113,47.0013535 9.47326058,46.6964849 9,46.25 C8.64253396,45.8579691 8.45547895,45.3399707 8.48,44.81 C8.46096705,44.1325786 8.76542804,43.4865272 9.3,43.07 C9.92286802,42.6000531 10.6906116,42.3630078 11.47,42.4 C12.209181,42.3757089 12.9338356,42.6090124 13.52,43.06 C14.0503079,43.4610028 14.3761158,44.0760109 14.41,44.74 L13.35,44.74 C13.2859586,44.336951 13.0625317,43.9765851 12.73,43.74 C12.3474066,43.4807713 11.891757,43.3510864 11.43,43.37 C10.946091,43.3467089 10.4680258,43.4838011 10.07,43.76 C9.74893736,43.9918019 9.55911414,44.3640043 9.56,44.76 C9.5520816,45.0747677 9.69287592,45.3748819 9.94,45.57 C10.3157082,45.8308883 10.7412723,46.0113275 11.19,46.1 L12.07,46.33 C12.7606906,46.4605925 13.4072942,46.763258 13.95,47.21 C14.3358424,47.6036994 14.5420806,48.1391952 14.52,48.69 C14.5462034,49.4065937 14.2307808,50.0931017 13.67,50.54 C13.0033049,51.0309011 12.1867149,51.2748176 11.36,51.23 C10.5734988,51.2621757 9.79890886,51.0297987 9.16,50.57 C8.61655523,50.1587971 8.28037524,49.5302866 8.24,48.85 L8.24,48.85 Z" id="Shape" stroke="#43CB83" stroke-width="0.55"></path>
            <path d="M16.39,50.66 C15.9853439,50.3225419 15.760036,49.8165225 15.78,49.29 C15.78,48.1366667 16.5466667,47.5133333 18.08,47.42 L19.9,47.31 L19.9,46.74 C19.9,45.9333333 19.4233333,45.53 18.47,45.53 C18.144238,45.5223798 17.8215476,45.5944702 17.53,45.74 C17.2961843,45.8580192 17.12221,46.0682381 17.05,46.32 L16,46.32 C16.0660822,45.8150821 16.3563124,45.3668784 16.79,45.1 C17.2950354,44.7819743 17.8834513,44.6218138 18.48,44.64 C19.1224208,44.5980464 19.7573164,44.7977889 20.26,45.2 C20.6800169,45.5992671 20.9062036,46.1610857 20.88,46.74 L20.88,51.06 L20,51.06 L20,50.13 L19.91,50.13 C19.7153007,50.4557544 19.435189,50.7220334 19.1,50.9 C18.7485826,51.0839825 18.3566072,51.1768188 17.96,51.17 C17.3915884,51.2001305 16.8321956,51.0184169 16.39,50.66 L16.39,50.66 Z M19.39,49.83 C19.7205736,49.5486612 19.9077139,49.1340172 19.9,48.7 L19.9,48.12 L18.2,48.23 C17.28,48.29 16.82,48.6233333 16.82,49.23 C16.8067922,49.5245199 16.9419442,49.8060866 17.18,49.98 C17.4457884,50.1667968 17.7653437,50.2616099 18.09,50.25 C18.5640466,50.2805298 19.0320769,50.1304742 19.4,49.83 L19.39,49.83 Z" id="Shape" stroke="#43CB83" stroke-width="0.55"></path>
            <path d="M23.78,43.65 L22.64,43.65 L24.12,41.65 L25.41,41.65 L23.78,43.65 Z M22.78,51.05 L22.78,44.74 L23.78,44.74 L23.78,51.06 L22.78,51.05 Z" id="Shape" stroke="#43CB83" stroke-width="0.55"></path>
            <path d="M26.14,50.28 C25.1736107,48.8404827 25.1736107,46.9595173 26.14,45.52 C26.6057868,44.9340483 27.3219287,44.6038067 28.07,44.63 C28.4851229,44.6216582 28.8952578,44.7216071 29.26,44.92 C29.5983407,45.1050142 29.8735008,45.3871404 30.05,45.73 L30.14,45.73 L30.14,42.23 L31.14,42.23 L31.14,51.05 L30.14,51.05 L30.14,50 L30.05,50 C29.8554743,50.3455839 29.5679163,50.6296773 29.22,50.82 C28.8558671,51.021013 28.4459086,51.1243639 28.03,51.12 C27.3043213,51.1456711 26.6072247,50.8358503 26.14,50.28 L26.14,50.28 Z M27,46.17 C26.3451238,47.233973 26.3451238,48.576027 27,49.64 C27.3382092,50.0405298 27.8357771,50.2716098 28.36,50.2716098 C28.8842229,50.2716098 29.3817908,50.0405298 29.72,49.64 C30.3855984,48.586309 30.3855984,47.243691 29.72,46.19 C29.3856335,45.7866282 28.8889368,45.5531986 28.365,45.5531986 C27.8410632,45.5531986 27.3443665,45.7866282 27.01,46.19 L27,46.17 Z" id="Shape" stroke="#43CB83" stroke-width="0.55"></path>
            <path d="M33.34,50.66 C32.9353439,50.3225419 32.710036,49.8165225 32.73,49.29 C32.73,48.1366667 33.4966667,47.5133333 35.03,47.42 L36.85,47.31 L36.85,46.74 C36.85,45.9333333 36.3733333,45.53 35.42,45.53 C35.094238,45.5223798 34.7715476,45.5944702 34.48,45.74 C34.2461843,45.8580192 34.07221,46.0682381 34,46.32 L33,46.32 C33.0660822,45.8150821 33.3563124,45.3668784 33.79,45.1 C34.2950354,44.7819743 34.8834513,44.6218138 35.48,44.64 C36.1224208,44.5980464 36.7573164,44.7977889 37.26,45.2 C37.6800169,45.5992671 37.9062036,46.1610857 37.88,46.74 L37.88,51.06 L36.88,51.06 L36.88,50.13 L36.79,50.13 C36.5953007,50.4557544 36.315189,50.7220334 35.98,50.9 C35.6285826,51.0839825 35.2366072,51.1768188 34.84,51.17 C34.2953797,51.183009 33.7638222,51.0022795 33.34,50.66 L33.34,50.66 Z M36.34,49.83 C36.6705736,49.5486612 36.8577139,49.1340172 36.85,48.7 L36.85,48.12 L35.15,48.23 C34.23,48.29 33.77,48.6233333 33.77,49.23 C33.7567922,49.5245199 33.8919442,49.8060866 34.13,49.98 C34.3957884,50.1667968 34.7153437,50.2616099 35.04,50.25 C35.5106691,50.2779718 35.9746659,50.1280651 36.34,49.83 L36.34,49.83 Z" id="Shape" stroke="#43CB83" stroke-width="0.55"></path>
        </g>
    </g>
</svg>