<svg id="Layer_1" data-name="Layer 1" xmlns="http://www.w3.org/2000/svg" viewBox="0 0 65.49 89.48"><defs><style>.cls-1{fill:#fff;}</style></defs><title>about</title><path class="cls-1" d="M16.71,25A12.25,12.25,0,1,1,29,12.75,12.25,12.25,0,0,1,16.71,25Zm0-22.27a10,10,0,1,0,10,10A10,10,0,0,0,16.71,2.73Zm27,76.5A22.26,22.26,0,0,1,33.79,37c.45-.22.9-.43,1.37-.63a22.39,22.39,0,0,1,17.09,0c.46.19.92.4,1.37.63a22.25,22.25,0,0,1-9.91,42.19Zm0-42.52a20.15,20.15,0,0,0-7.78,1.55c-.42.18-.83.37-1.24.57a20.3,20.3,0,1,0,18,0q-.61-.3-1.25-.57A20.14,20.14,0,0,0,43.71,36.71Zm-.48,34.62a2.58,2.58,0,1,1,2.58-2.58A2.58,2.58,0,0,1,43.23,71.33Zm3.92-15.2a8.24,8.24,0,0,0-2.35,6.11l.08,1H41.62l-.12-1a9.52,9.52,0,0,1,2.56-7.14c1.86-2.19,2.89-3.8,2.89-5.65,0-2.1-1.32-3.51-3.92-3.55a7.34,7.34,0,0,0-4.17,1.28l-1-2.6a10.92,10.92,0,0,1,5.9-1.65c4.74,0,6.89,2.93,6.89,6.06,0,2.81-1.52,4.83-3.5,7.19ZM26.84,74.5v13a.57.57,0,0,1-.11.21H6.7a1,1,0,0,1-.2-.15V60.5l-.33-.33c-1.77-1.77-3.4-3.85-3.49-4.42v-24c0-1.58,1.9-3.17,6.14-3.17h15.1c5,0,6.68,2.17,6.68,3.17V37a22.37,22.37,0,0,1,2.3-1.47V31.7c0-2.62-3.12-5.4-8.91-5.4H8.88C2.69,26.32.5,29.23.5,31.72v24c0,1.51,2.26,4.08,3.82,5.67V87.56A2.53,2.53,0,0,0,6.5,90H26.88a2.48,2.48,0,0,0,2.19-2.42V76.74A22,22,0,0,1,26.84,74.5Z" transform="translate(-0.5 -0.5)"/></svg>