<svg id="Layer_1" data-name="Layer 1" xmlns="http://www.w3.org/2000/svg" viewBox="0 0 66.34 73.63"><defs><style>.cls-1{fill:#fff;}</style></defs><title>bag</title><path class="cls-1" d="M52.3,82.88A19.21,19.21,0,0,1,67.11,51.36h1.21l-.4-20.87H59.45v-.84a16.5,16.5,0,0,0-33,0v.84H18l-1,54H53.66Zm6.16-44a1,1,0,0,0,1-1v-1.5a1.81,1.81,0,1,1-2,0v1.5A1,1,0,0,0,58.46,38.84Zm-30-9.16a14.5,14.5,0,0,1,29,0v.84h-29Zm-1,9.16a1,1,0,0,0,1-1v-1.5a1.81,1.81,0,1,1-2,0v1.5A1,1,0,0,0,27.46,38.84ZM19,82.52l1-50h6.5v2.71a2.8,2.8,0,1,0,2,0V32.52h29v2.71a2.8,2.8,0,1,0,2,0V32.52H66l.32,16.86A21.21,21.21,0,0,0,49.52,82.52Z" transform="translate(-16.95 -13.18)"/><path class="cls-1" d="M83.29,70.59A16.23,16.23,0,1,0,67.06,86.82,16.25,16.25,0,0,0,83.29,70.59ZM67.06,84.82A14.23,14.23,0,1,1,81.29,70.59,14.24,14.24,0,0,1,67.06,84.82Z" transform="translate(-16.95 -13.18)"/><path class="cls-1" d="M73.71,76.83v-2c0-.77-1.79-1.17-3.58-1.38a7.65,7.65,0,1,0-8.14,0c-1.79.21-3.58.61-3.58,1.38v2.25c0,.54.87.9,2,1.14v2c0,1.58,7.34,1.6,7.65,1.6s7.65,0,7.65-1.6V78C75.73,77.65,75.51,77.21,73.71,76.83ZM58.94,67a7.11,7.11,0,1,1,7.11,7.11A7.11,7.11,0,0,1,58.94,67Zm0,7.85c.06-.2,1.09-.68,3.88-.93a7.56,7.56,0,0,0,6.45,0c2.8.25,3.83.73,3.89.91-.11.37-2.65,1.06-7.11,1.06s-7-.69-7.11-1h0Zm14.22.66v1.58c0,.14-.41.31-1.08.48V75.91A4.64,4.64,0,0,0,73.16,75.53Zm-1.62.5v1.69c-.33.07-.71.13-1.13.19v-1.7C70.8,76.16,71.18,76.1,71.54,76Zm-1.67.24V78l-1.13.1V76.36Zm-1.67.13v1.71l-1.13,0V76.44Zm-1.67.06v1.71H65.4V76.45h1.13Zm-1.67,0v1.71l-1.13,0V76.39Zm-5,1.1c-.55-.15-.85-.31-.89-.43V75.53a4.26,4.26,0,0,0,.89.34Zm.55.14V76c.35.07.73.14,1.13.19v1.7C61.08,77.82,60.7,77.75,60.38,77.68Zm1.48,3c-.55-.15-.85-.31-.89-.43V78.63a4.22,4.22,0,0,0,.89.34Zm.19-4.4,1.13.1v1.71l-1.13-.11ZM63.53,81c-.43-.06-.81-.13-1.13-.2V79.1c.35.07.73.14,1.13.19Zm1.67.18-1.13-.11V79.35l1.13.1Zm1.67.09-1.13,0V79.49l1.13.05Zm1.67,0H67.42V79.55h1.13Zm1.67-.06-1.13,0V79.55l1.13,0Zm1.67-.14-1.13.1V79.47l1.13-.1Zm1.67-.25c-.33.07-.71.13-1.13.19v-1.7c.39,0,.77-.11,1.13-.18Zm1.62-.61c0,.14-.41.31-1.07.48V79a4.57,4.57,0,0,0,1.07-.38ZM68.07,79a28.1,28.1,0,0,1-5.64-.48c1.76.17,3.47.17,3.61.17s6.82,0,7.58-1.34c1.39.29,1.55.59,1.55.59C75.07,78.33,72.54,79,68.07,79Z" transform="translate(-16.95 -13.18)"/><path class="cls-1" d="M66.33,72.08v-.59a3.41,3.41,0,0,0,1-.19,3.22,3.22,0,0,0,1-.61,2.56,2.56,0,0,0,.62-.9,2.72,2.72,0,0,0,.22-1.06,2.38,2.38,0,0,0-.45-1.47,2.64,2.64,0,0,0-1.39-.89l-.83-.22-.13,0V64.17a2.79,2.79,0,0,1,.93.21,3.2,3.2,0,0,1,.88.54l.1.1h.58V63.16l-.21-.1a5.57,5.57,0,0,0-1.19-.41,6.28,6.28,0,0,0-1.1-.13v-.58h-.54v.59a3.12,3.12,0,0,0-1.87.72,2.43,2.43,0,0,0-.88,1.9,2.7,2.7,0,0,0,.16,1,2.2,2.2,0,0,0,.46.73,2.4,2.4,0,0,0,.68.51,4.05,4.05,0,0,0,.81.3l.64.16v2a3.29,3.29,0,0,1-1-.24,3.47,3.47,0,0,1-1.08-.69l-.1-.1H63v1.92l.2.1a7.73,7.73,0,0,0,1.2.46,5.51,5.51,0,0,0,1.4.18v.58h.55Zm0-4.12.25.07a1.08,1.08,0,0,1,.56.32.89.89,0,0,1,.16.55.83.83,0,0,1-.32.69,1.36,1.36,0,0,1-.66.26Zm-.68-2a1.24,1.24,0,0,1-.6-.33.81.81,0,0,1-.18-.57.72.72,0,0,1,.31-.62,1.4,1.4,0,0,1,.6-.22V66Z" transform="translate(-16.95 -13.18)"/></svg>