<svg id="Layer_1" data-name="Layer 1" xmlns="http://www.w3.org/2000/svg" viewBox="0 0 87 61"><defs><style>.cls-1{fill:#777;}</style></defs><title>dashboard</title><path class="cls-1" d="M21.5,57h-4a.5.5,0,0,1-.5-.5v-5a.5.5,0,0,1,.5-.5h4a.5.5,0,0,1,.5.5v5A.5.5,0,0,1,21.5,57ZM18,56h3V52H18ZM7.5,17h-3a.5.5,0,0,1-.5-.5v-4a.5.5,0,0,1,.5-.5h3a.5.5,0,0,1,.5.5v4A.5.5,0,0,1,7.5,17ZM5,16H7V13H5Zm2.5,8h-3a.5.5,0,0,1-.5-.5v-4a.5.5,0,0,1,.5-.5h3a.5.5,0,0,1,.5.5v4A.5.5,0,0,1,7.5,24ZM5,23H7V20H5Zm2.5,8h-3a.5.5,0,0,1-.5-.5v-4a.5.5,0,0,1,.5-.5h3a.5.5,0,0,1,.5.5v4A.5.5,0,0,1,7.5,31ZM5,30H7V27H5Zm2.5,8h-3a.5.5,0,0,1-.5-.5v-4a.5.5,0,0,1,.5-.5h3a.5.5,0,0,1,.5.5v4A.5.5,0,0,1,7.5,38ZM5,37H7V34H5Zm2.5,8h-3a.5.5,0,0,1-.5-.5v-4a.5.5,0,0,1,.5-.5h3a.5.5,0,0,1,.5.5v4A.5.5,0,0,1,7.5,45ZM5,44H7V41H5Zm2.5,8h-3a.5.5,0,0,1-.5-.5v-4a.5.5,0,0,1,.5-.5h3a.5.5,0,0,1,.5.5v4A.5.5,0,0,1,7.5,52ZM5,51H7V48H5ZM72,15H68a.5.5,0,0,1,0-1h4a.5.5,0,0,1,0,1ZM86,61H1a1,1,0,0,1-1-1V9A1,1,0,0,1,1,8H86a1,1,0,0,1,1,1V60A1,1,0,0,1,86,61ZM2,59H85V10H2ZM86,10a1,1,0,0,1-1-1V4a2,2,0,0,0-2.07-2H4.32A2.18,2.18,0,0,0,2,4V9A1,1,0,0,1,0,9V4A4.17,4.17,0,0,1,4.32,0H82.93A4,4,0,0,1,87,4V9A1,1,0,0,1,86,10ZM25,19H17a.5.5,0,0,1,0-1h8a.5.5,0,0,1,0,1Zm6,37H24a.5.5,0,0,1,0-1h7a.5.5,0,0,1,0,1Zm3-3H24a.5.5,0,0,1,0-1H34a.5.5,0,0,1,0,1Zm7.5,4h-4a.5.5,0,0,1-.5-.5v-5a.5.5,0,0,1,.5-.5h4a.5.5,0,0,1,.5.5v5A.5.5,0,0,1,41.5,57ZM38,56h3V52H38Zm13,0H44a.5.5,0,0,1,0-1h7a.5.5,0,0,1,0,1Zm3-3H44a.5.5,0,0,1,0-1H54a.5.5,0,0,1,0,1Zm9.5,4h-4a.5.5,0,0,1-.5-.5v-5a.5.5,0,0,1,.5-.5h4a.5.5,0,0,1,.5.5v5A.5.5,0,0,1,63.5,57ZM60,56h3V52H60Zm13,0H66a.5.5,0,0,1,0-1h7a.5.5,0,0,1,0,1Zm3-3H66a.5.5,0,0,1,0-1H76a.5.5,0,0,1,0,1ZM28,16H17a1,1,0,0,1,0-2H28a1,1,0,0,1,0,2ZM6.52,3.75A1.27,1.27,0,1,1,5.25,5,1.27,1.27,0,0,1,6.52,3.75Zm4.1,0A1.27,1.27,0,1,1,9.35,5,1.27,1.27,0,0,1,10.63,3.75Zm4.1,0A1.27,1.27,0,1,1,13.45,5,1.27,1.27,0,0,1,14.73,3.75Zm51,10a1,1,0,1,1-1,1A1,1,0,0,1,65.75,13.75ZM55,21H51a.5.5,0,0,1,0-1h4a.5.5,0,0,1,0,1Zm-6.25-1.25a1,1,0,1,1-1,1A1,1,0,0,1,48.75,19.75ZM69,38H65a.5.5,0,0,1,0-1h4a.5.5,0,0,1,0,1Zm-6.25-1.25a1,1,0,1,1-1,1A1,1,0,0,1,62.75,36.75ZM40,29H36a.5.5,0,0,1,0-1h4a.5.5,0,0,1,0,1Zm-6.25-1.25a1,1,0,1,1-1,1A1,1,0,0,1,33.75,27.75ZM49,45H45a.5.5,0,0,1,0-1h4a.5.5,0,0,1,0,1Zm-6.25-1.25a1,1,0,1,1-1,1A1,1,0,0,1,42.75,43.75ZM10.5,60.5A.5.5,0,0,1,10,60V10a.5.5,0,0,1,1,0V60A.5.5,0,0,1,10.5,60.5ZM58.4,34.95a.5.5,0,0,1-.45-.72l5.57-11.12a.5.5,0,0,1,.89.45L58.84,34.67A.5.5,0,0,1,58.4,34.95Zm-3.62.46a.5.5,0,0,1-.39-.19l-4.76-6.07a.5.5,0,0,1,.79-.62l4.76,6.07a.5.5,0,0,1-.08.7A.49.49,0,0,1,54.78,35.41ZM42.54,37.74a.5.5,0,0,1-.45-.72l4-8.36a.5.5,0,0,1,.9.43l-4,8.36A.5.5,0,0,1,42.54,37.74Zm-3.74.81a.5.5,0,0,1-.32-.12l-2.8-2.34a.5.5,0,1,1,.64-.77l2.8,2.34a.5.5,0,0,1,.06.7A.51.51,0,0,1,38.8,38.56ZM24,42.87a.5.5,0,0,1-.33-.87l7.71-6.87a.5.5,0,1,1,.67.75l-7.71,6.87A.5.5,0,0,1,24,42.87ZM48.26,30a3.27,3.27,0,1,1,3.27-3.27A3.27,3.27,0,0,1,48.26,30Zm0-5.53a2.27,2.27,0,1,0,2.27,2.27A2.27,2.27,0,0,0,48.26,24.45ZM33.94,37.14a3.27,3.27,0,1,1,3.27-3.27A3.27,3.27,0,0,1,33.94,37.14Zm0-5.53a2.27,2.27,0,1,0,2.27,2.27A2.27,2.27,0,0,0,33.94,31.61ZM56.84,40a3.27,3.27,0,1,1,3.27-3.27A3.27,3.27,0,0,1,56.84,40Zm0-5.53a2.27,2.27,0,1,0,2.27,2.27A2.27,2.27,0,0,0,56.84,34.47ZM41.1,42.87a3.27,3.27,0,1,1,3.27-3.27A3.27,3.27,0,0,1,41.1,42.87Zm0-5.53a2.27,2.27,0,1,0,2.27,2.27A2.27,2.27,0,0,0,41.1,37.33ZM65.43,24.26A3.27,3.27,0,1,1,68.7,21,3.27,3.27,0,0,1,65.43,24.26Zm0-5.53A2.27,2.27,0,1,0,67.7,21,2.27,2.27,0,0,0,65.43,18.73ZM50,28.83m-3.47,0"/></svg>