<svg id="Layer_1" data-name="Layer 1" xmlns="http://www.w3.org/2000/svg" viewBox="0 0 24 23.97"><title>hands</title><path d="M3.5,22H.5a.5.5,0,0,1-.5-.5v-9a.5.5,0,0,1,.16-.36A.52.52,0,0,1,.53,12c1,.06,4.46.32,5.31,1.14a.5.5,0,0,1,.15.41,52.43,52.43,0,0,1-2,8.11A.5.5,0,0,1,3.5,22ZM1,21H3.13A52.47,52.47,0,0,0,5,13.76a15.19,15.19,0,0,0-4-.71Z" transform="translate(0 -0.02)"/><path d="M13.4,24a5.75,5.75,0,0,1-2.07-.5L3.84,21A.5.5,0,1,1,4.16,20l7.5,2.5c1.8.68,1.95.74,6.15-1l5-2.25a2.27,2.27,0,0,0-2.32-.76l-3.83,1a.5.5,0,0,1-.24-1l3.83-1a3.27,3.27,0,0,1,3.74,1.72.5.5,0,0,1-.24.68l-5.5,2.5C15.6,23.54,14.41,24,13.4,24Z" transform="translate(0 -0.02)"/><path d="M14.43,19.94a3.51,3.51,0,0,1-.69-.07L9.4,19a.5.5,0,1,1,.2-1l4.34.87a2.5,2.5,0,0,0,1.1,0l1-.24c-.06-.91-.51-1.35-1.61-1.63l-9-2a.5.5,0,0,1-.38-.6.51.51,0,0,1,.6-.38l9,2c1.66.41,2.39,1.29,2.39,2.83V19a.5.5,0,0,1-.38.49l-1.35.34A3.5,3.5,0,0,1,14.43,19.94Z" transform="translate(0 -0.02)"/><path d="M22.33,18.55h-.11a.5.5,0,0,1-.38-.6A6.57,6.57,0,0,0,22,16.52c0-2-4-7.38-5.74-9.5H12.73c-.78.93-4.36,5.32-5.27,7.66a.5.5,0,0,1-.93-.36c1.07-2.78,5.4-7.91,5.58-8.13A.5.5,0,0,1,12.5,6h4a.5.5,0,0,1,.39.18C17.51,7,23,13.67,23,16.52a7.56,7.56,0,0,1-.18,1.64A.5.5,0,0,1,22.33,18.55Z" transform="translate(0 -0.02)"/><path d="M18.5,7h-8a.5.5,0,0,1,0-1h8a.5.5,0,0,1,0,1Z" transform="translate(0 -0.02)"/><path d="M16.5,7h-4a.5.5,0,0,1-.31-.11C11.76,6.56,8,3.5,7.83,1.65a1.25,1.25,0,0,1,.3-1A1.1,1.1,0,0,1,9,.33a8.16,8.16,0,0,1,3.38,1.48C12.94,1,13.78,0,14.5,0s1.56,1,2.13,1.8A8.16,8.16,0,0,1,20,.33a1.1,1.1,0,0,1,.87.35,1.25,1.25,0,0,1,.3,1C21,3.5,17.24,6.56,16.81,6.91A.5.5,0,0,1,16.5,7ZM12.68,6h3.65c1.5-1.22,3.76-3.41,3.85-4.45a.26.26,0,0,0-.05-.22H20a8.72,8.72,0,0,0-3.22,1.59.5.5,0,0,1-.71-.13A5.44,5.44,0,0,0,14.48,1a5.76,5.76,0,0,0-1.57,1.77.5.5,0,0,1-.33.22.51.51,0,0,1-.39-.09A8.71,8.71,0,0,0,9,1.33a.29.29,0,0,0-.12,0,.28.28,0,0,0,0,.21C8.91,2.61,11.18,4.8,12.68,6Z" transform="translate(0 -0.02)"/><path d="M16,17.52a.5.5,0,0,1-.32-.88A.83.83,0,0,0,16,16c0-.49-.47-.8-1.49-1l-.11,0c-1.62-.3-2.4-1-2.4-2a2.3,2.3,0,0,1,2.5-2A2.32,2.32,0,0,1,17,12.88.5.5,0,1,1,16,13c0-.52-.72-.95-1.5-.95s-1.5.46-1.5,1,.48.8,1.49,1l.11,0c1.62.3,2.4,1,2.4,2a1.8,1.8,0,0,1-.69,1.38A.51.51,0,0,1,16,17.52Z" transform="translate(0 -0.02)"/><path d="M14.5,16.52A.5.5,0,0,1,14,16v-5.5a.5.5,0,0,1,1,0V16A.5.5,0,0,1,14.5,16.52Z" transform="translate(0 -0.02)"/></svg>