<svg id="Layer_1" data-name="Layer 1" xmlns="http://www.w3.org/2000/svg" xmlns:xlink="http://www.w3.org/1999/xlink" viewBox="0 0 46.8 64"><defs><style>.cls-1{fill:#fff;}.cls-2{clip-path:url(#clip-path);}</style><clipPath id="clip-path"><rect class="cls-1" width="46.8" height="64"/></clipPath></defs><title>items-inside-a-shopping-bag</title><path class="cls-1" d="M40.52,4.65l-4,2.6-.36,2.07,4-2.6Z"/><path class="cls-1" d="M39.77,8.91l-4,2.6-.42,2.39,4-2.6Z"/><path class="cls-1" d="M41.23.61,37.79,0,36.9,5.07l4-2.6Z"/><rect class="cls-1" width="46.8" height="64"/><g class="cls-2"><path class="cls-1" d="M29.8,22.26a2.17,2.17,0,0,0,0,4.33H30c.52,3.85-3.52,7.37-7.34,7.58-4.31.23-6.1-3.94-6.45-7.62a2.17,2.17,0,1,0-1.89-.46c.32,5.07,3.2,10.68,9.14,9.87,5-.67,9.42-5.46,8.21-10.37a2.16,2.16,0,0,0-1.84-3.31Z"/><path class="cls-1" d="M46.25,60.93c-1.59-6.27-6.3-27.8-.08-41.49h0a1.22,1.22,0,0,0,.07-.25.35.35,0,0,0,0-.06,1.42,1.42,0,0,0,0-.31v-.06a1.75,1.75,0,0,0,0-.25v-.09a1.62,1.62,0,0,0-.1-.21v0h0L46,18l-4.48-6a1.37,1.37,0,0,0-.62-.46,4.51,4.51,0,0,1-.26,3.93l1.48,2H35.89l2.67-1.73.4-2.28-4,2.6-.25,1.41H30.5l2.06-3.24.47-.76-3.17-2L22.22,6.63l-2.3,3.62,2.23,7.23H21L16.33,2.32,4.1,6.09l1.65,5.37H4.47a1.39,1.39,0,0,0-1.24.75l-3.09,6v.19a1.34,1.34,0,0,0,0,.2v.1A1.52,1.52,0,0,0,0,19H0a1.7,1.7,0,0,0,.07.3h0C6.66,37.23,2,55.82.45,61.09a1.49,1.49,0,0,0,.17,1.43,1.38,1.38,0,0,0,1.11.55h0a1.26,1.26,0,0,0,.86-.32h41.6A1.27,1.27,0,0,0,45,63a1.39,1.39,0,0,0,1.1-.54,1.58,1.58,0,0,0,.17-1.53ZM5.32,14.24H6.61l1,3.24h-4ZM3.65,60c1.84-6.94,5-23.38-.31-39.71H42.83c-5,13.4-1.48,32.07.32,39.71Z"/></g><path class="cls-1" d="M8.24,48.85H9.3A1.5,1.5,0,0,0,10,49.9a2.62,2.62,0,0,0,1.49.39,2.32,2.32,0,0,0,1.42-.41,1.25,1.25,0,0,0,.56-1,1.14,1.14,0,0,0-.41-.9,3.1,3.1,0,0,0-1.28-.57l-1.08-.28A3.48,3.48,0,0,1,9,46.25a2,2,0,0,1-.52-1.44,2.13,2.13,0,0,1,.82-1.74,3.34,3.34,0,0,1,2.17-.67,3.19,3.19,0,0,1,2.05.66,2.25,2.25,0,0,1,.89,1.68H13.35a1.52,1.52,0,0,0-.62-1,2.16,2.16,0,0,0-1.3-.37,2.2,2.2,0,0,0-1.36.39,1.23,1.23,0,0,0-.51,1,1,1,0,0,0,.38.81,3.32,3.32,0,0,0,1.25.53l.88.23a4.18,4.18,0,0,1,1.88.88,2,2,0,0,1,.57,1.48,2.26,2.26,0,0,1-.85,1.85,3.57,3.57,0,0,1-2.31.69,3.52,3.52,0,0,1-2.2-.66A2.33,2.33,0,0,1,8.24,48.85Z"/><path class="cls-1" d="M11.55,51.51h-.2A3.81,3.81,0,0,1,9,50.79a2.6,2.6,0,0,1-1-1.93l0-.29H9.54l0,.23a1.22,1.22,0,0,0,.57.86,2.42,2.42,0,0,0,1.33.35,2.1,2.1,0,0,0,1.27-.36,1,1,0,0,0,.44-.78.86.86,0,0,0-.31-.68,2.82,2.82,0,0,0-1.16-.51l-1.1-.28a3.75,3.75,0,0,1-1.82-.95,2.3,2.3,0,0,1-.61-1.65,2.4,2.4,0,0,1,.93-1.94,3.59,3.59,0,0,1,2.35-.73,3.41,3.41,0,0,1,2.2.72,2.52,2.52,0,0,1,1,1.88l0,.29H13.12l0-.23a1.25,1.25,0,0,0-.51-.82,1.88,1.88,0,0,0-1.13-.32,2,2,0,0,0-1.21.34,1,1,0,0,0-.39.77.73.73,0,0,0,.28.6,3,3,0,0,0,1.13.48l.9.23a4.46,4.46,0,0,1,2,.93,2.3,2.3,0,0,1,.67,1.7,2.53,2.53,0,0,1-1,2.05A3.87,3.87,0,0,1,11.55,51.51Zm-.2-.55a3.33,3.33,0,0,0,2.16-.64,2,2,0,0,0,.74-1.62,1.75,1.75,0,0,0-.49-1.3A3.91,3.91,0,0,0,12,46.6l-.9-.24a3.52,3.52,0,0,1-1.34-.57,1.29,1.29,0,0,1-.5-1,1.51,1.51,0,0,1,.62-1.22,2.47,2.47,0,0,1,1.53-.44,2.33,2.33,0,0,1,1.44.42,1.81,1.81,0,0,1,.68,1h.53a2,2,0,0,0-.75-1.19,2.92,2.92,0,0,0-1.87-.6,3.12,3.12,0,0,0-2,.62,1.86,1.86,0,0,0-.71,1.51,1.75,1.75,0,0,0,.45,1.26,3.2,3.2,0,0,0,1.55.8l1.09.28a3.35,3.35,0,0,1,1.38.62,1.41,1.41,0,0,1,.52,1.12,1.53,1.53,0,0,1-.68,1.22,2.58,2.58,0,0,1-1.58.46,2.83,2.83,0,0,1-1.62-.43,1.77,1.77,0,0,1-.77-1H8.55a2.05,2.05,0,0,0,.77,1.23A3.32,3.32,0,0,0,11.35,51Z"/><path class="cls-1" d="M16.39,50.66a1.7,1.7,0,0,1-.61-1.37q0-1.73,2.3-1.87l1.82-.11v-.57q0-1.21-1.43-1.21a2,2,0,0,0-.94.21.94.94,0,0,0-.48.58H16a1.69,1.69,0,0,1,.79-1.22,3,3,0,0,1,1.69-.46,2.58,2.58,0,0,1,1.78.56,2,2,0,0,1,.62,1.54v4.32H20v-.93h-.09a2.08,2.08,0,0,1-.81.77,2.37,2.37,0,0,1-1.14.27A2.3,2.3,0,0,1,16.39,50.66Zm3-.83a1.45,1.45,0,0,0,.51-1.13v-.58l-1.7.11q-1.38.09-1.38,1a.88.88,0,0,0,.36.75,1.49,1.49,0,0,0,.91.27,1.88,1.88,0,0,0,1.31-.42Z"/><path class="cls-1" d="M17.82,51.45a2.56,2.56,0,0,1-1.61-.57h0a2,2,0,0,1-.71-1.59c0-.9.44-2,2.56-2.13l1.56-.09v-.31c0-.44-.13-.93-1.15-.93a1.58,1.58,0,0,0-.82.18.67.67,0,0,0-.34.41l-.06.2H15.69l0-.31a2,2,0,0,1,.92-1.42,3.22,3.22,0,0,1,1.84-.5,2.79,2.79,0,0,1,1.94.62,2.28,2.28,0,0,1,.72,1.77v4.58H19.73v-.54a2.34,2.34,0,0,1-.5.35,2.68,2.68,0,0,1-1.27.3Zm-1.26-1a2,2,0,0,0,1.38.45,2.17,2.17,0,0,0,1-.24,1.81,1.81,0,0,0,.7-.67l0-.05-.13.11a2.18,2.18,0,0,1-1.5.48A1.77,1.77,0,0,1,17,50.21a1.16,1.16,0,0,1-.48-1c0-.52.28-1.17,1.64-1.26l2-.13v.87a1.71,1.71,0,0,1-.21.85h.21l-.37.3h.47v.93h.33v-4a1.73,1.73,0,0,0-.53-1.34,2.29,2.29,0,0,0-1.57-.49,2.76,2.76,0,0,0-1.56.42,1.42,1.42,0,0,0-.59.71h.51a1.22,1.22,0,0,1,.54-.55,2.41,2.41,0,0,1,1.07-.24c1.48,0,1.7.93,1.7,1.49v.83l-2.08.13c-1.83.11-2,1-2,1.6A1.43,1.43,0,0,0,16.56,50.45ZM18.08,50a1.66,1.66,0,0,0,1.06-.29l.07-.06a1.17,1.17,0,0,0,.41-.92v-.29l-1.41.09c-1.12.07-1.12.55-1.12.73a.61.61,0,0,0,.25.53A1.27,1.27,0,0,0,18.08,50Z"/><path class="cls-1" d="M23.78,43.65H22.64l1.48-2h1.29Zm-1,7.4V44.74h1v6.32Z"/><path class="cls-1" d="M24.05,51.34H22.5V44.46h1.55Zm-1-.56h.45V45h-.45Zm.86-6.85H22.09L24,41.38h2Zm-.73-.55h.46l1.18-1.45h-.57Z"/><path class="cls-1" d="M26.14,50.28a4.27,4.27,0,0,1,0-4.76,2.36,2.36,0,0,1,1.93-.89,2.39,2.39,0,0,1,1.19.29,1.93,1.93,0,0,1,.79.81h.09v-3.5h1V51h-1V50h-.09a2.12,2.12,0,0,1-.83.82,2.41,2.41,0,0,1-1.19.3A2.36,2.36,0,0,1,26.14,50.28ZM27,46.17a3.31,3.31,0,0,0,0,3.47,1.78,1.78,0,0,0,2.72,0,3.23,3.23,0,0,0,0-3.45,1.76,1.76,0,0,0-2.71,0Z"/><path class="cls-1" d="M27.93,51.4a2.61,2.61,0,0,1-2-.94l0,0a4.53,4.53,0,0,1,0-5.07,2.61,2.61,0,0,1,2.17-1,2.49,2.49,0,0,1,1.31.32,2.16,2.16,0,0,1,.47.35V42h1.55v9.37H29.86v-.64a2.35,2.35,0,0,1-.51.38,2.69,2.69,0,0,1-1.3.33Zm-1.58-1.28a2.16,2.16,0,0,0,1.66.73h0a2.16,2.16,0,0,0,1-.27,1.83,1.83,0,0,0,.59-.51,2.06,2.06,0,0,1-2.89-.25,3.57,3.57,0,0,1,0-3.79l.27-.43.06.13a2,2,0,0,1,2.73.17l0,0a1.66,1.66,0,0,0-.68-.7,2.13,2.13,0,0,0-1-.26H28a2.1,2.1,0,0,0-1.65.79A4,4,0,0,0,26.36,50.11Zm4.06.66h.45V42.51h-.45V46h-.48A3.53,3.53,0,0,1,30,49.72h.42Zm-3.25-4.34a3,3,0,0,0,.07,3.06,1.51,1.51,0,0,0,2.1.15,1.46,1.46,0,0,0,.18-.18,3,3,0,0,0,0-3.13,1.47,1.47,0,0,0-1-.5,1.48,1.48,0,0,0-1.28.53Z"/><path class="cls-1" d="M33.34,50.66a1.7,1.7,0,0,1-.61-1.37q0-1.73,2.3-1.87l1.82-.11v-.57q0-1.21-1.43-1.21a2,2,0,0,0-.94.21.94.94,0,0,0-.48.58H33a1.69,1.69,0,0,1,.79-1.22,3,3,0,0,1,1.69-.46,2.58,2.58,0,0,1,1.78.56,2,2,0,0,1,.62,1.54v4.32h-1v-.93h-.09a2.08,2.08,0,0,1-.81.77,2.37,2.37,0,0,1-1.14.27A2.3,2.3,0,0,1,33.34,50.66Zm3-.83a1.45,1.45,0,0,0,.51-1.13v-.58l-1.7.11q-1.38.09-1.38,1a.88.88,0,0,0,.36.75,1.49,1.49,0,0,0,.91.27A1.88,1.88,0,0,0,36.34,49.83Z"/><path class="cls-1" d="M34.78,51.45a2.57,2.57,0,0,1-1.61-.57h0a2,2,0,0,1-.71-1.59c0-.9.44-2,2.56-2.13l1.56-.09v-.31c0-.44-.13-.93-1.15-.93a1.53,1.53,0,0,0-.82.18.67.67,0,0,0-.34.41l-.06.2H32.69l0-.31a2,2,0,0,1,.92-1.42,3.3,3.3,0,0,1,1.84-.5,2.79,2.79,0,0,1,1.94.62,2.28,2.28,0,0,1,.72,1.77v4.58H36.6v-.54a2.36,2.36,0,0,1-.49.35,2.6,2.6,0,0,1-1.28.3Zm-1.26-1a1.93,1.93,0,0,0,1.32.45,1.86,1.86,0,0,0,1-.24,1.8,1.8,0,0,0,.67-.62h0a2.13,2.13,0,0,1-1.49.48A1.69,1.69,0,0,1,34,50.21a1.16,1.16,0,0,1-.48-1c0-.52.28-1.17,1.64-1.26l2-.13v.87a1.71,1.71,0,0,1-.42,1.15h.45v.93h.45v-4a1.73,1.73,0,0,0-.53-1.34,2.33,2.33,0,0,0-1.57-.49,2.77,2.77,0,0,0-1.56.42,1.42,1.42,0,0,0-.59.71h.46a1.22,1.22,0,0,1,.54-.55,2.25,2.25,0,0,1,1.07-.24c1.48,0,1.7.93,1.7,1.49v.83L35,47.69c-1.83.11-2,1-2,1.6A1.44,1.44,0,0,0,33.51,50.45ZM35,50a1.63,1.63,0,0,0,1.13-.36,1.17,1.17,0,0,0,.41-.91v-.29l-1.41.09c-1.12.07-1.12.55-1.12.73a.61.61,0,0,0,.25.53A1.27,1.27,0,0,0,35,50Z"/></svg>