<svg id="Layer_1" data-name="Layer 1" xmlns="http://www.w3.org/2000/svg" viewBox="0 0 82.4 79.9"><defs><style>.cls-1{fill:#777;}</style></defs><title>login</title><path class="cls-1" d="M50.2,10.1A14.32,14.32,0,0,0,36.1,24.4v.4A1.16,1.16,0,0,0,37.3,26h3.8a1.16,1.16,0,0,0,1.2-1.2v-.1a8.14,8.14,0,0,1,7.5-8.3,8,8,0,0,1,8.6,8v5H35.7A3.85,3.85,0,0,0,32,33.2V54a3.8,3.8,0,0,0,3.8,3.8h29A3.8,3.8,0,0,0,68.6,54V33.1a3.8,3.8,0,0,0-3.8-3.8h-.1V24.7C64.7,16.7,58.2,9.9,50.2,10.1Zm2.4,34.3a.81.81,0,0,0-.4.8v4.6h0a1.55,1.55,0,0,1-.9,1.5,1.74,1.74,0,0,1-2.6-1.5h0V45.2a.91.91,0,0,0-.3-.7,3.45,3.45,0,0,1-1.1-4.3,3.63,3.63,0,0,1,3.9-2.1,3.46,3.46,0,0,1,2.9,3.5A3.93,3.93,0,0,1,52.6,44.4ZM9.7,86.1H23.6a.9.9,0,0,1,.9.9v2.1a.9.9,0,0,1-.9.9H9.7a.9.9,0,0,1-.9-.9V87A.9.9,0,0,1,9.7,86.1Zm21.4,3V87a.9.9,0,0,1,.9-.9H45.9a.9.9,0,0,1,.9.9v2.1a.9.9,0,0,1-.9.9H32A1.06,1.06,0,0,1,31.1,89.1Zm36.9.8H54.2a.9.9,0,0,1-.9-.9V87a.9.9,0,0,1,.9-.9H68a.9.9,0,0,1,.9.9v2.1A.88.88,0,0,1,68,89.9Zm22.3,0H76.4a.9.9,0,0,1-.9-.9V87a.9.9,0,0,1,.9-.9H90.3a.9.9,0,0,1,.9.9v2.1A.88.88,0,0,1,90.3,89.9ZM17.8,69.4v3.4l2.9-1.7a1.17,1.17,0,0,1,1.2,2l-3,1.7,3,1.7a1.17,1.17,0,0,1-1.2,2l-2.9-1.7v3.4a1.2,1.2,0,0,1-2.4,0V76.8l-2.9,1.7a1.17,1.17,0,0,1-1.2-2l3-1.7-3-1.7a1.17,1.17,0,0,1,1.2-2l2.9,1.7V69.4a1.22,1.22,0,0,1,1.2-1.2A1.16,1.16,0,0,1,17.8,69.4Zm26.4,3.7-3,1.7,3,1.7a1.17,1.17,0,1,1-1.2,2l-2.9-1.7v3.4a1.2,1.2,0,0,1-2.4,0V76.8l-2.9,1.7a1.17,1.17,0,1,1-1.2-2l3-1.7-3-1.7a1.17,1.17,0,1,1,1.2-2l2.9,1.7V69.4a1.2,1.2,0,0,1,2.4,0v3.4L43,71.1a1.23,1.23,0,0,1,1.6.4A1.25,1.25,0,0,1,44.2,73.1Zm22.2,0-3,1.7,3,1.7a1.17,1.17,0,0,1-1.2,2l-2.9-1.7v3.4a1.2,1.2,0,0,1-2.4,0V76.8L57,78.6a1.17,1.17,0,0,1-1.2-2l3-1.7-3-1.7a1.17,1.17,0,0,1,1.2-2l2.9,1.7V69.5a1.2,1.2,0,0,1,2.4,0v3.4l2.9-1.7a1.23,1.23,0,0,1,1.6.4A1,1,0,0,1,66.4,73.1Zm22.2,0-3,1.7,3,1.7a1.17,1.17,0,1,1-1.2,2l-2.9-1.7v3.4a1.2,1.2,0,0,1-2.4,0V76.8l-2.9,1.7a1.17,1.17,0,1,1-1.2-2l3-1.7-3-1.7a1.17,1.17,0,1,1,1.2-2l2.9,1.7V69.4a1.2,1.2,0,1,1,2.4,0v3.4l2.9-1.7a1.23,1.23,0,0,1,1.6.4A1.08,1.08,0,0,1,88.6,73.1Z" transform="translate(-8.8 -10.1)"/></svg>