<svg id="Layer_1" data-name="Layer 1" xmlns="http://www.w3.org/2000/svg" viewBox="0 0 91.13 84.62"><defs><style>.cls-1{fill:#c10000;}.cls-2{fill:#d4a351;}</style></defs><title>logo</title><path class="cls-1" d="M46.41,25.25q.13-8.55.27-17.11c10.29-.87,19.81,1,28.27,7.3l-.34.67-5.82,11.3c-.18.34-.4.65.25.87L75.8,16c9.3,6.88,14,16.37,16.08,27.5l-8.46,1.76c0,.65.33.5.66.44l7.24-1.36.82-.12c.25,1.8.52,3.53.73,5.27.53,4.39.08,8.76-.2,13.14a41.07,41.07,0,0,0,.5,11.28A8.22,8.22,0,0,0,94,76a2,2,0,0,0,.91.76c.69.31.87.64.58,1.34a3.22,3.22,0,0,1-4.37,1.39,13,13,0,0,1-2.43-2.14A66.31,66.31,0,0,1,77.32,59.55a37.87,37.87,0,0,1-1.2-4.22,38.47,38.47,0,0,0-5-10.85,27.38,27.38,0,0,0-7.08-7.35,23.09,23.09,0,0,0-14-3.86,37.71,37.71,0,0,0-7.53.69,26.55,26.55,0,0,0-9.11,4.26c-2.41,1.64-4.74,3.39-7.11,5.09-.33.24-.67.46-1.08.73A25.71,25.71,0,0,0,16.1,36.2,32.59,32.59,0,0,0,4.44,32.58c3.85-5.23,8.76-9.27,13.71-13.37l8.49,11.13.12-.08-7.41-12c4.14-2.92,8-6.27,12.88-7.83A58.26,58.26,0,0,1,44.38,8.24a4.15,4.15,0,0,1,.61,0l1.25,16.94Z" transform="translate(-4.44 -7.94)"/><path class="cls-2" d="M72.47,55.67a3.34,3.34,0,0,0-1,0c-1.18.32-2.36.68-3.53,1.06a1.17,1.17,0,0,0-.83,1.37A9.47,9.47,0,0,0,68,61C69.43,63.52,71,66,72.62,68.4c.42.65.93,1.23,1.37,1.8-.51.73-1,1.42-1.5,2.14A7.8,7.8,0,0,1,65.73,76a24,24,0,0,1-5.52-.5,19.56,19.56,0,0,0-10.6.68,46.74,46.74,0,0,0-12.07,6.15c-4.12,2.85-8.12,5.88-12.17,8.84l-1.9,1.38c.58-1.63,1.15-3.13,1.65-4.65,2.11-6.56,4-13.18,5.49-19.91.15-.66.5-.74,1-.8a19,19,0,0,0,9-2.94,9.24,9.24,0,0,0,3.85-5c0-.11,0-.22.08-.42l-15.24.83c-.25,1.84-.5,3.65-.76,5.46a1.18,1.18,0,0,1-.29.7c-2.41,1.9-4.85,3.78-7.28,5.67l-.25-.2c.58-2.28,1.11-4.57,1.76-6.83A56.68,56.68,0,0,1,29.93,48a27,27,0,0,1,10.37-9.43c8.65-4.25,22.91-2.94,29.64,10A25.11,25.11,0,0,1,72.47,55.67Z" transform="translate(-4.44 -7.94)"/></svg>