<svg id="Layer_1" data-name="Layer 1" xmlns="http://www.w3.org/2000/svg" viewBox="0 0 76.1 56"><defs><style>.cls-1{fill:#777;}</style></defs><title>menu</title><path class="cls-1" d="M3,6H53.4a3,3,0,0,0,3-3,3,3,0,0,0-3-3H3A3,3,0,0,0,0,3,3,3,0,0,0,3,6Z"/><circle class="cls-1" cx="73.1" cy="3" r="3"/><path class="cls-1" d="M3,31H53.4a3,3,0,0,0,0-6H3a3,3,0,0,0-3,3A3,3,0,0,0,3,31Z"/><circle class="cls-1" cx="73.1" cy="28" r="3"/><path class="cls-1" d="M56.4,53a3,3,0,0,0-3-3H3a3,3,0,0,0,0,6H53.4A3,3,0,0,0,56.4,53Z"/><circle class="cls-1" cx="73.1" cy="53" r="3"/></svg>